# xmcd
#
# Track frame offsets:
# 150
# 2540
# 14462
# 28293
# 41345
# 53379
# 63772
# 76052
# 87745
# 102737
# 114448
# 125481
# 138545
# 149353
# 160657
# 170476
# 182943
# 197254
# 211758
# 226687
# 240175
# 253013
# 264366
# 275476
# 287520
#
# Disc length: 4005 seconds
#
# Revision: 1
# Processed by: cddbd v1.5.1PL0 Copyright (c) Steve Scherf et al.
# Submitted via: CedeCatalogueitor 2.6.0.6 http://personales.ya.com/cdcatalogueitor
#
DISCID=4a0fa319
DTITLE=Various Artist - Blues Christmas
DYEAR=1994
DGENRE=
TTITLE0=Christmas Greeting
TTITLE1=White Christmas
TTITLE2=Christmas Time Blues
TTITLE3=What Are You Doing New Year's Eve?
TTITLE4=I Want My Baby For Christmas
TTITLE5=Boogie Woogiw Santa Claus
TTITLE6=Christmas In Heaven
TTITLE7=Best Wishes
TTITLE8=Faraway Chritmas Blues
TTITLE9=Christmas Date Blues
TTITLE10=Any Day Now
TTITLE11=Let's Make Christmas Merry Babe
TTITLE12=Hey Santa Claus
TTITLE13=I'll Be Home For Christmas
TTITLE14=Lonesome Christmas
TTITLE15=Christmas Spirit
TTITLE16=May Everyday Be Christmas
TTITLE17=The Christmas Song
TTITLE18=Christmas Boogie
TTITLE19=Lonely Christmas
TTITLE20=Oh, How I Hate To See Christmas Come Around
TTITLE21=I Want My Baby Ror Christmas
TTITLE22=I'll Be Home For Christmas
TTITLE23=Just A Lonely Christams
TTITLE24=Silen Night
EXTD=
EXTT0=
EXTT1=
EXTT2=
EXTT3=
EXTT4=
EXTT5=
EXTT6=
EXTT7=
EXTT8=
EXTT9=
EXTT10=
EXTT11=
EXTT12=
EXTT13=
EXTT14=
EXTT15=
EXTT16=
EXTT17=
EXTT18=
EXTT19=
EXTT20=
EXTT21=
EXTT22=
EXTT23=
EXTT24=
PLAYORDER=
